<svg xmlns="http://www.w3.org/2000/svg" viewBox="0 0 52.83 52.83"><defs><style>.cls-1{fill:none;stroke:#fff;stroke-miterlimit:10;stroke-width:2px;}</style></defs><g id="Camada_2" data-name="Camada 2"><g id="Layer_1" data-name="Layer 1"><path class="cls-1" d="M17.26,34.55a4.07,4.07,0,0,0,4.07-4.07v-13a3.6,3.6,0,0,0-2.45-3.4l-2.63-.9-5.08,5.08L6.08,13.2l-2.63.9A3.6,3.6,0,0,0,1,17.5v13a4.07,4.07,0,0,0,4.07,4.07"/><circle class="cls-1" cx="11.17" cy="6.08" r="5.08"/><path class="cls-1" d="M17.26,21.33V50.81a1,1,0,0,1-1,1H6.08a1,1,0,0,1-1-1V21.33"/><line class="cls-1" x1="11.17" y1="33.53" x2="11.17" y2="51.83"/><path class="cls-1" d="M17.26,44.34a19.32,19.32,0,1,0,4-27.5"/><polyline class="cls-1" points="39.63 29.46 35.56 33.53 31.5 37.59 27.43 33.53"/></g></g></svg>