<?xml version="1.0" encoding="utf-8"?>
<!-- Generator: Adobe Illustrator 25.2.0, SVG Export Plug-In . SVG Version: 6.00 Build 0)  -->
<svg version="1.1" id="Capa_1" xmlns="http://www.w3.org/2000/svg" xmlns:xlink="http://www.w3.org/1999/xlink" x="0px" y="0px"
	 viewBox="0 0 512 512" style="enable-background:new 0 0 512 512;" xml:space="preserve">
<style type="text/css">
	.st0{fill:#FFFFFF;}
</style>
<g>
	<path class="st0" d="M492.4,434.1h-36.9V245.7c0-7.7-6.3-13.9-13.9-13.9H327.5v-54.3c0-7.7-6.3-13.9-13.9-13.9H198.4
		c-7.7,0-13.9,6.3-13.9,13.9v53.1c0,4.1,3.4,7.5,7.5,7.5s7.5-3.4,7.5-7.5v-52.1h113v255.6h-113V262.5c0-4.1-3.4-7.5-7.5-7.5
		s-7.5,3.4-7.5,7.5v26.8H70.4c-7.7,0-13.9,6.3-13.9,13.9v130.8H19.6C8.8,434.1,0,442.8,0,453.6v50.6c0,4.1,3.4,7.5,7.5,7.5h497
		c4.1,0,7.5-3.4,7.5-7.5v-50.6C512,442.8,503.2,434.1,492.4,434.1z M71.5,304.3h113v129.7h-113V304.3z M497,496.7H15v-43.1
		c0-2.5,2-4.6,4.6-4.6H372c4.1,0,7.5-3.4,7.5-7.5s-3.4-7.5-7.5-7.5h-44.5V246.7h113v187.3H404c-4.1,0-7.5,3.4-7.5,7.5
		s3.4,7.5,7.5,7.5h88.5c2.5,0,4.6,2,4.6,4.6L497,496.7L497,496.7z"/>
	<path class="st0" d="M211.4,91.7l-5.9,34.6c-0.9,5.1,1.2,10.1,5.3,13.1c4.1,3,9.5,3.4,14.1,1l31.1-16.4l31.1,16.4
		c2,1,4.1,1.6,6.2,1.6c2.8,0,5.5-0.9,7.8-2.6c4.1-3,6.2-8,5.3-13.1l-5.9-34.7l25.2-24.5c3.7-3.6,5-8.8,3.4-13.7
		c-1.6-4.9-5.7-8.4-10.8-9.1l-34.8-5.1L268,7.8c-2.3-4.6-6.9-7.5-12-7.5s-9.7,2.9-12,7.5l-15.6,31.5l-34.8,5.1
		c-5.1,0.7-9.2,4.2-10.8,9.1c-1.6,4.9-0.3,10.1,3.4,13.7L211.4,91.7z M231.4,54c4.4-0.6,8.1-3.4,10.1-7.3L256,17.3l14.5,29.3
		c1.9,3.9,5.7,6.7,10.1,7.3l32.4,4.7l-23.4,22.8c-3.2,3.1-4.6,7.5-3.8,11.8l5.5,32.3l-29-15.2c-3.9-2.1-8.6-2.1-12.4,0l-29,15.2
		l5.5-32.3c0.7-4.3-0.7-8.8-3.8-11.8l-23.4-22.8L231.4,54z"/>
	<path class="st0" d="M364.5,71.1c0,4.1,3.4,7.5,7.5,7.5h10.7c4.1,0,7.5-3.4,7.5-7.5c0-4.1-3.4-7.5-7.5-7.5H372
		C367.9,63.6,364.5,67,364.5,71.1z"/>
	<path class="st0" d="M359.1,26.3c1,0,2.1-0.2,3.1-0.7l9.8-4.4c3.8-1.7,5.4-6.2,3.7-9.9c-1.7-3.8-6.2-5.4-9.9-3.7l-9.8,4.4
		c-3.8,1.7-5.4,6.2-3.7,9.9C353.5,24.6,356.3,26.3,359.1,26.3L359.1,26.3z"/>
	<path class="st0" d="M356,130.3l9.8,4.4c1,0.5,2.1,0.7,3.1,0.7c2.9,0,5.6-1.6,6.8-4.4c1.7-3.8,0-8.2-3.7-9.9l-9.8-4.4
		c-3.8-1.7-8.2,0-9.9,3.7C350.6,124.2,352.2,128.6,356,130.3L356,130.3z"/>
	<path class="st0" d="M130.2,78.6H141c4.1,0,7.5-3.4,7.5-7.5c0-4.1-3.4-7.5-7.5-7.5h-10.7c-4.1,0-7.5,3.4-7.5,7.5
		C122.7,75.3,126.1,78.6,130.2,78.6z"/>
	<path class="st0" d="M141,21.2l9.8,4.4c1,0.5,2.1,0.7,3.1,0.7c2.9,0,5.6-1.6,6.8-4.4c1.7-3.8,0-8.2-3.7-9.9l-9.8-4.4
		c-3.8-1.7-8.2,0-9.9,3.7C135.6,15,137.3,19.4,141,21.2z"/>
	<path class="st0" d="M150.8,116.7l-9.8,4.4c-3.8,1.7-5.4,6.2-3.7,9.9c1.3,2.8,4,4.4,6.8,4.4c1,0,2.1-0.2,3.1-0.7l9.8-4.4
		c3.8-1.7,5.4-6.2,3.7-9.9C159,116.6,154.6,115,150.8,116.7z"/>
</g>
</svg>
