<svg id="Capa_1" enable-background="new 0 0 512 512" height="512" viewBox="0 0 512 512" width="512" xmlns="http://www.w3.org/2000/svg"><g><path d="m144.36 510.45c6.3 3.111 13.953 1.438 18.368-4.099l240-301c3.592-4.505 4.286-10.669 1.786-15.86s-7.752-8.491-13.514-8.491h-95.789l79.221-159.321c2.312-4.65 2.055-10.165-.681-14.579-2.734-4.414-7.559-7.1-12.751-7.1h-180c-6.889 0-12.892 4.692-14.556 11.376l-60 241c-1.115 4.48-.105 9.224 2.737 12.861 2.843 3.638 7.203 5.763 11.819 5.763h70.808l-55.363 222.376c-1.705 6.845 1.59 13.952 7.915 17.074zm81.196-250.826c1.115-4.48.105-9.224-2.737-12.861-2.843-3.638-7.203-5.763-11.819-5.763h-70.808l52.531-211h144.065l-79.221 159.321c-2.312 4.65-2.055 10.165.681 14.579 2.734 4.415 7.559 7.1 12.751 7.1h88.855l-177.67 222.828z"/></g></svg>