<?xml version="1.0" encoding="utf-8"?>
<!-- Generator: Adobe Illustrator 25.4.1, SVG Export Plug-In . SVG Version: 6.00 Build 0)  -->
<svg version="1.1" id="Camada_1" xmlns="http://www.w3.org/2000/svg" xmlns:xlink="http://www.w3.org/1999/xlink" x="0px" y="0px"
	 viewBox="0 0 51.4 47.3" style="enable-background:new 0 0 51.4 47.3;" xml:space="preserve">
<style type="text/css">
	.st0{fill:#2695F9;}
	.st1{fill:#FFFFFF;}
</style>
<g id="Camada_2_1_">
	<g id="Layer_1">
		<path class="st0" d="M3.1,0h20.7c1.7,0,3.1,1.4,3.1,3.1v18.5c0,1.7-1.4,3.1-3.1,3.1H3.1c-1.7,0-3.1-1.4-3.1-3.1V3.1
			C0,1.4,1.4,0,3.1,0z"/>
		<path class="st1" d="M4.3,7.5h2.2l3.1,7.3l3.1-7.3h2.2v9.8h-2V11l-2.6,6.4H9L6.3,11v6.4h-2V7.5z"/>
		<path class="st1" d="M19.9,13.6h-1.6v3.8h-2V7.5h3.6c2.4,0,3.5,1.3,3.5,3C23.4,12,22.4,13.6,19.9,13.6z M19.8,12
			c1.1,0,1.6-0.5,1.6-1.4s-0.5-1.4-1.6-1.4h-1.5V12H19.8z"/>
		<rect x="2.1" y="3.3" class="st0" width="21.3" height="18.3"/>
	</g>
</g>
</svg>
