<svg xmlns="http://www.w3.org/2000/svg" viewBox="0 0 185.05 26.35"><defs><style>.cls-1{fill:#fff;}</style></defs><g id="Camada_2" data-name="Camada 2"><g id="Layer_1" data-name="Layer 1"><path class="cls-1" d="M0,2.86H5.28l7.38,17.25L20,2.86h5.25V26.05H20.64V11L14.42,26.05H10.9L4.65,11V26.05H0Z"/><path class="cls-1" d="M28.38,2.72a2.86,2.86,0,0,1,5.72,0,2.86,2.86,0,0,1-5.72,0Zm.5,4.92h4.65V26.05H28.88Z"/><path class="cls-1" d="M45,7.34c4.59,0,7.68,2.4,8.68,6.52h-5A3.62,3.62,0,0,0,45,11.3c-2.59,0-4.32,2-4.32,5.55s1.73,5.52,4.32,5.52a3.52,3.52,0,0,0,3.69-2.53h5c-1,3.92-4.09,6.51-8.68,6.51-5.32,0-9.1-3.72-9.1-9.5S39.71,7.34,45,7.34Z"/><path class="cls-1" d="M60.79,26.05H56.13V7.64h4.66V10.5a6.38,6.38,0,0,1,5.64-3.12v4.88H65.21c-2.76,0-4.42,1.07-4.42,4.62Z"/><path class="cls-1" d="M76.74,26.35c-5.32,0-9.34-3.72-9.34-9.5a9.47,9.47,0,1,1,18.94,0C86.34,22.63,82.09,26.35,76.74,26.35Zm0-4.05c2.46,0,4.82-1.8,4.82-5.45s-2.3-5.45-4.76-5.45-4.68,1.76-4.68,5.45S74.24,22.3,76.74,22.3Z"/><path class="cls-1" d="M97.31,17.15H93.42v8.9H88.77V2.86h8.54c5.58,0,8.37,3.15,8.37,7.18C105.68,13.56,103.29,17.15,97.31,17.15Zm-.2-3.76c2.62,0,3.79-1.29,3.79-3.35s-1.17-3.39-3.79-3.39H93.42v6.74Z"/><path class="cls-1" d="M116.15,26.35c-5.32,0-9.34-3.72-9.34-9.5a9.48,9.48,0,1,1,19,0C125.76,22.63,121.5,26.35,116.15,26.35Zm0-4.05c2.46,0,4.82-1.8,4.82-5.45s-2.29-5.45-4.75-5.45-4.69,1.76-4.69,5.45S113.66,22.3,116.15,22.3Z"/><path class="cls-1" d="M126.12,7.64h4.72l3.26,14,3.52-14h4.92l3.46,14,3.25-14h4.46l-5.39,18.41h-5L140,13.19l-3.36,12.86h-5.05Z"/><path class="cls-1" d="M163.28,26.35c-5.35,0-9.24-3.72-9.24-9.5s3.79-9.51,9.24-9.51,9.07,3.63,9.07,9.11a10.9,10.9,0,0,1-.13,1.8H158.76a4.3,4.3,0,0,0,4.42,4.25,3.8,3.8,0,0,0,3.69-2.23h5A8.56,8.56,0,0,1,163.28,26.35Zm-4.49-11.23h8.74a4.08,4.08,0,0,0-4.38-3.95A4.27,4.27,0,0,0,158.79,15.12Z"/><path class="cls-1" d="M179.4,26.05h-4.66V7.64h4.66V10.5a6.39,6.39,0,0,1,5.65-3.12v4.88h-1.23c-2.76,0-4.42,1.07-4.42,4.62Z"/></g></g></svg>