<svg xmlns="http://www.w3.org/2000/svg" viewBox="0 0 106.93 15.23"><defs><style>.cls-1{fill:#020202;}</style></defs><g id="Camada_2" data-name="Camada 2"><g id="Layer_1" data-name="Layer 1"><path class="cls-1" d="M0,1.65H3.05l4.27,10,4.26-10h3V15.06H11.93V6.34L8.34,15.06h-2L2.69,6.34v8.72H0Z"/><path class="cls-1" d="M16.4,1.58a1.65,1.65,0,1,1,1.65,1.57A1.58,1.58,0,0,1,16.4,1.58Zm.29,2.84h2.69V15.06H16.69Z"/><path class="cls-1" d="M26,4.25A4.76,4.76,0,0,1,31,8h-2.9A2.1,2.1,0,0,0,26,6.53c-1.49,0-2.49,1.13-2.49,3.21s1,3.19,2.49,3.19a2,2,0,0,0,2.14-1.46H31a4.87,4.87,0,0,1-5,3.76c-3.07,0-5.26-2.15-5.26-5.49S23,4.25,26,4.25Z"/><path class="cls-1" d="M35.13,15.06H32.44V4.42h2.69V6.07a3.69,3.69,0,0,1,3.26-1.81V7.09h-.71c-1.59,0-2.55.61-2.55,2.67Z"/><path class="cls-1" d="M44.34,15.23A5.2,5.2,0,0,1,39,9.74a5.48,5.48,0,1,1,10.95,0A5.32,5.32,0,0,1,44.34,15.23Zm0-2.34a2.83,2.83,0,0,0,2.79-3.15c0-2.13-1.33-3.15-2.75-3.15s-2.71,1-2.71,3.15S42.9,12.89,44.34,12.89Z"/><path class="cls-1" d="M56.23,9.91H54v5.15H51.3V1.65h4.93c3.23,0,4.84,1.83,4.84,4.15C61.07,7.84,59.69,9.91,56.23,9.91Zm-.11-2.17c1.51,0,2.19-.75,2.19-1.94s-.68-2-2.19-2H54v3.9Z"/><path class="cls-1" d="M67.12,15.23a5.21,5.21,0,0,1-5.4-5.49,5.48,5.48,0,1,1,11,0A5.32,5.32,0,0,1,67.12,15.23Zm0-2.34a2.84,2.84,0,0,0,2.79-3.15c0-2.13-1.33-3.15-2.75-3.15s-2.71,1-2.71,3.15S65.68,12.89,67.12,12.89Z"/><path class="cls-1" d="M72.88,4.42h2.73l1.88,8.1,2-8.1h2.84l2,8.08,1.88-8.08h2.57L85.71,15.06h-2.9L80.87,7.63l-1.94,7.43H76Z"/><path class="cls-1" d="M94.35,15.23A5.15,5.15,0,0,1,89,9.74a5.11,5.11,0,0,1,5.34-5.49A5,5,0,0,1,99.6,9.51a6.15,6.15,0,0,1-.08,1H91.74A2.49,2.49,0,0,0,94.3,13a2.19,2.19,0,0,0,2.13-1.28h2.9A5,5,0,0,1,94.35,15.23ZM91.76,8.74h5a2.37,2.37,0,0,0-2.53-2.29A2.48,2.48,0,0,0,91.76,8.74Z"/><path class="cls-1" d="M103.67,15.06H101V4.42h2.69V6.07a3.69,3.69,0,0,1,3.26-1.81V7.09h-.71c-1.59,0-2.55.61-2.55,2.67Z"/></g></g></svg>