<svg xmlns="http://www.w3.org/2000/svg" viewBox="0 0 47.7 60.76"><defs><style>.cls-1{fill:none;stroke:#fff;stroke-miterlimit:10;stroke-width:2px;}</style></defs><g id="Camada_2" data-name="Camada 2"><g id="Layer_1" data-name="Layer 1"><circle class="cls-1" cx="23.85" cy="36.91" r="3.26"/><path class="cls-1" d="M35.39,25.36h0Z"/><line class="cls-1" x1="35.39" y1="25.37" x2="26.16" y2="34.6"/><line class="cls-1" x1="20.59" y1="7.53" x2="20.59" y2="14.32"/><line class="cls-1" x1="27.12" y1="14.28" x2="27.12" y2="7.53"/><path class="cls-1" d="M42.13,23.24l3.58-3.58a1.08,1.08,0,0,0,0-1.54l-3.07-3.07a1.08,1.08,0,0,0-1.54,0l-3.58,3.58A22.89,22.89,0,0,1,42.13,23.24Z"/><path class="cls-1" d="M5.57,23.24,2,19.66a1.08,1.08,0,0,1,0-1.54l3.08-3.07a1.07,1.07,0,0,1,1.53,0l3.58,3.58A22.89,22.89,0,0,0,5.57,23.24Z"/><path class="cls-1" d="M18.41,1H29.29a3.26,3.26,0,0,1,3.26,3.26V5.35a2.18,2.18,0,0,1-2.18,2.18H17.32a2.18,2.18,0,0,1-2.18-2.18V4.26A3.26,3.26,0,0,1,18.41,1Z"/><path class="cls-1" d="M23.85,53.23A16.31,16.31,0,0,0,39,31"/><circle class="cls-1" cx="23.85" cy="36.91" r="22.85"/></g></g></svg>