<svg xmlns="http://www.w3.org/2000/svg" viewBox="0 0 44.61 52.72"><defs><style>.cls-1{fill:none;stroke:#fff;stroke-miterlimit:10;stroke-width:2px;}</style></defs><g id="Camada_2" data-name="Camada 2"><g id="Layer_1" data-name="Layer 1"><path class="cls-1" d="M34.19,51.7a10.35,10.35,0,0,0,9.42-10.43V38.13a5.08,5.08,0,0,0-3.47-4.81l-8.71-2.9V22.3a3,3,0,0,0-3-3h0a3,3,0,0,0-3,3V39.55l-2.5-2.5a5.08,5.08,0,0,0-7.18,0l-.47.47L26.29,48.76h0A10.11,10.11,0,0,0,34.19,51.7Z"/><polyline class="cls-1" points="22.3 12.16 18.25 16.22 14.19 20.27 10.13 16.22"/><path class="cls-1" d="M31.43,16.22a15.24,15.24,0,1,0-6.08,12.15"/></g></g></svg>